<svg width="160" height="160" viewBox="0 0 160 160" fill="none" xmlns="http://www.w3.org/2000/svg">
<g opacity="0.8">
<path d="M28.7782 111.666C28.7782 113.281 27.5864 114.597 26.1115 114.597C24.6365 114.597 23.4448 113.281 23.4448 111.666C23.4448 110.045 24.6365 108.73 26.1115 108.73C27.5864 108.73 28.7782 110.045 28.7782 111.666Z" fill="#63A4E5"/>
<path d="M148.778 67.1327C148.778 69.1935 147.228 70.8632 145.314 70.8632C143.401 70.8632 141.845 69.1935 141.845 67.1327C141.845 65.0661 143.401 63.3965 145.314 63.3965C147.228 63.3965 148.778 65.0661 148.778 67.1327Z" fill="#FFD000"/>
<path d="M136.511 71.1271C136.511 101.906 111.56 126.863 80.7809 126.863C49.996 126.863 25.0448 101.906 25.0448 71.1271C25.0448 40.3477 49.996 15.3965 80.7809 15.3965C111.56 15.3965 136.511 40.3477 136.511 71.1271Z" fill="#ECF3FE"/>
<g style="mix-blend-mode:multiply" opacity="0.2">
<path d="M128.332 120.826C128.797 123.032 127.332 125.214 125.049 125.719L56.7719 140.82C54.4539 141.333 52.1767 139.923 51.7051 137.684L33.9613 53.4355C33.2592 50.3127 35.3328 47.1909 38.603 46.471L103.381 32.145C106.645 31.4198 109.863 33.3693 110.57 36.492L128.332 120.826Z" fill="#306C9E"/>
<path d="M34.634 57.3939C34.1694 55.188 35.6339 53.0055 37.9175 52.5004L106.194 37.3998C108.512 36.8871 110.789 38.2965 111.261 40.5356L129.005 124.784C129.707 127.907 127.633 131.029 124.363 131.749L59.5853 146.075C56.3205 146.8 53.1032 144.85 52.3956 141.728L34.634 57.3939Z" fill="#306C9E"/>
</g>
<path d="M130.697 116.755C131.161 118.961 129.697 121.144 127.413 121.649L59.1364 136.75C56.8184 137.262 54.5412 135.853 54.0696 133.614L36.3258 49.3652C35.6237 46.2424 37.6973 43.1206 40.9675 42.4007L105.745 28.0747C109.01 27.3495 112.227 29.2989 112.935 32.4217L130.697 116.755Z" fill="white"/>
<path d="M36.9985 53.3236C36.5339 51.1177 37.9984 48.9352 40.282 48.4301L108.559 33.3295C110.877 32.8168 113.154 34.2261 113.625 36.4653L131.369 120.714C132.071 123.837 129.998 126.958 126.727 127.678L61.9498 142.004C58.685 142.73 55.4677 140.78 54.7601 137.657L36.9985 53.3236Z" fill="white"/>
<rect x="79.1548" y="53.8726" width="28.4314" height="3.47841" rx="1.7392" transform="rotate(-11.8 79.1548 53.8726)" fill="#E4ECF9"/>
<rect x="80.7712" y="61.6094" width="28.4314" height="3.47841" rx="1.7392" transform="rotate(-11.8 80.7712 61.6094)" fill="#E4ECF9"/>
<rect x="82.3876" y="69.3472" width="28.4314" height="3.47841" rx="1.7392" transform="rotate(-11.8 82.3876 69.3472)" fill="#E4ECF9"/>
<rect x="52.6882" y="83.626" width="60.4232" height="3.47841" rx="1.7392" transform="rotate(-11.8 52.6882 83.626)" fill="#E4ECF9"/>
<rect x="54.3046" y="91.3633" width="60.4232" height="3.47841" rx="1.7392" transform="rotate(-11.8 54.3046 91.3633)" fill="#E4ECF9"/>
<rect x="55.9209" y="99.0996" width="60.4232" height="3.47841" rx="1.7392" transform="rotate(-11.8 55.9209 99.0996)" fill="#E4ECF9"/>
<rect x="57.5374" y="106.837" width="60.4232" height="19.2721" rx="6.93333" transform="rotate(-11.8 57.5374 106.837)" fill="#E4ECF9"/>
<rect x="62.3865" y="130.048" width="60.4232" height="3.47841" rx="1.7392" transform="rotate(-11.8 62.3865 130.048)" fill="#E4ECF9"/>
<rect x="46.2228" y="52.6777" width="27.8753" height="3.47841" rx="1.7392" transform="rotate(-11.8 46.2228 52.6777)" fill="#2982E1"/>
<rect x="47.8392" y="60.4146" width="27.8753" height="19.2866" rx="6.93333" transform="rotate(-11.8 47.8392 60.4146)" fill="#E4ECF9"/>
<path d="M17.7066 47.9255C17.7066 49.5405 16.5149 50.8559 15.04 50.8559C13.565 50.8559 12.3733 49.5405 12.3733 47.9255C12.3733 46.3047 13.565 44.9893 15.04 44.9893C16.5149 44.9893 17.7066 46.3047 17.7066 47.9255Z" fill="#FFD000"/>
<g clip-path="url(#clip0_48_6037)">
<path d="M55.9773 94.8674C54.0236 90.4765 48.5197 86.4457 43.743 85.9092C40.8237 85.6433 36.9468 85.5036 31.8335 86.2817C26.7239 87.0839 23.0702 88.3877 20.3675 89.5227C15.9766 91.4764 11.9457 96.9803 11.4092 101.757C11.1433 104.676 11.0036 108.553 11.7818 113.667C12.584 118.776 13.8878 122.43 15.0228 125.133C16.9766 129.524 22.4813 133.554 27.2571 134.091C30.1764 134.357 34.0551 134.496 39.1666 133.718C44.2753 132.916 47.9299 131.612 50.6326 130.477C55.0244 128.523 59.0543 123.02 59.5909 118.243C59.8568 115.324 59.9962 111.445 59.2183 106.333C58.4161 101.224 57.1123 97.5701 55.9773 94.8674Z" fill="#FFF1EB"/>
<path d="M38.2283 124.881C35.8508 125.309 31.1064 125.663 29.5177 125.536C28.4394 125.477 27.3643 125.021 26.4933 124.289C25.6354 123.578 25.0173 122.619 24.7229 121.544C24.7211 121.533 24.7194 121.522 24.7178 121.512C24.5159 120.735 24.3683 119.945 24.2764 119.147C24.2764 119.147 24.1099 118.457 24.0463 117.168C24.0445 117.157 24.0428 117.145 24.0413 117.135C23.9914 116.076 24.3072 115.032 24.9358 114.178C25.5669 113.315 26.4722 112.693 27.5032 112.413C29.0152 112.013 33.6784 111.201 36.0549 110.834C38.4314 110.466 42.2619 109.969 43.8235 109.89C44.8912 109.846 45.9423 110.166 46.8041 110.798C47.6613 111.423 48.2777 112.323 48.5501 113.348L48.555 113.38C48.7321 114.021 48.872 114.671 48.9738 115.328C49.1004 116.122 49.1849 116.923 49.2268 117.726L49.2319 117.759C49.2757 118.873 48.976 119.974 48.3732 120.912C47.7628 121.872 46.8765 122.632 45.8663 123.013C44.3865 123.596 40.6166 124.529 38.2283 124.881Z" fill="url(#paint0_linear_48_6037)"/>
<path d="M35.2081 109.137C39.3119 108.502 42.1244 104.661 41.49 100.557C40.8556 96.4537 37.0146 93.6413 32.9108 94.2757C28.8071 94.91 25.9946 98.7511 26.629 102.855C27.2634 106.959 31.1044 109.771 35.2081 109.137Z" fill="url(#paint1_linear_48_6037)"/>
<path d="M49.2833 118.233C49.1178 117.844 48.6508 117.571 48.2336 117.579C48.1088 117.576 47.3666 117.659 46.5875 117.756C46.4434 116.983 46.299 116.251 46.2578 116.132C46.1397 115.73 45.7385 115.368 45.3178 115.329C44.6127 115.272 43.9041 115.382 43.249 115.649C42.8601 115.815 42.5878 116.281 42.5954 116.699C42.5921 116.824 42.6754 117.566 42.7713 118.346C41.9994 118.489 41.2666 118.633 41.1487 118.674C40.7467 118.792 40.3838 119.194 40.3454 119.614C40.2887 120.32 40.3983 121.029 40.6653 121.684C40.8308 122.073 41.2978 122.345 41.7149 122.337C41.8397 122.34 42.5819 122.257 43.3611 122.161C43.5052 122.934 43.6496 123.665 43.6906 123.783C43.8078 124.186 44.2102 124.548 44.6306 124.587C45.3358 124.643 46.0444 124.534 46.6995 124.267C47.0883 124.101 47.3605 123.634 47.3531 123.217C47.3565 123.092 47.2732 122.351 47.1773 121.571C47.9491 121.427 48.6818 121.282 48.7998 121.241C49.2019 121.124 49.5648 120.723 49.6032 120.302C49.6599 119.597 49.5503 118.888 49.2833 118.233Z" fill="url(#paint2_linear_48_6037)"/>
</g>
</g>
<defs>
<linearGradient id="paint0_linear_48_6037" x1="45.8929" y1="124.32" x2="27.4157" y2="110.791" gradientUnits="userSpaceOnUse">
<stop stop-color="#FE7838"/>
<stop offset="0.54" stop-color="#FE7636"/>
<stop offset="1" stop-color="#FFAD8A"/>
</linearGradient>
<linearGradient id="paint1_linear_48_6037" x1="40.1259" y1="106.148" x2="27.9931" y2="97.2642" gradientUnits="userSpaceOnUse">
<stop stop-color="#E09868"/>
<stop offset="0.51" stop-color="#E09868"/>
<stop offset="1" stop-color="#F9C4A0"/>
</linearGradient>
<linearGradient id="paint2_linear_48_6037" x1="48.2591" y1="122.365" x2="41.6858" y2="117.552" gradientUnits="userSpaceOnUse">
<stop stop-color="#34344F"/>
<stop offset="0.54" stop-color="#353551"/>
<stop offset="1" stop-color="#666684"/>
</linearGradient>
<clipPath id="clip0_48_6037">
<rect width="48" height="48" fill="white" transform="translate(8.11523 89.9482) rotate(-8.78761)"/>
</clipPath>
</defs>
</svg>
