<svg width="48" height="48" viewBox="0 0 48 48" fill="none" xmlns="http://www.w3.org/2000/svg">
<path d="M46.5487 12.1734C45.2897 7.53469 40.4653 2.71125 35.8266 1.45125C32.9822 0.7425 29.1722 0.0121875 24 0C18.8278 0.013125 15.0178 0.7425 12.1734 1.45219C7.53563 2.71125 2.71125 7.53469 1.45125 12.1734C0.7425 15.0178 0.0121875 18.8278 0 24C0.013125 29.1722 0.7425 32.9822 1.45219 35.8266C2.71219 40.4653 7.53562 45.2887 12.1744 46.5487C15.0188 47.2584 18.8288 47.9878 24.0009 48.0009C29.1722 47.9878 32.9831 47.2584 35.8275 46.5487C40.4663 45.2887 45.2897 40.4653 46.5497 35.8266C47.2594 32.9831 47.9888 29.1722 48.0019 24C47.9888 18.8278 47.2594 15.0178 46.5497 12.1734H46.5487Z" fill="#FFF1EB"/>
</svg>
