<svg width="180" height="181" viewBox="0 0 180 181" fill="none" xmlns="http://www.w3.org/2000/svg">
<g opacity="0.8">
<path d="M32.376 126.203C32.376 128.02 31.0353 129.5 29.376 129.5C27.7167 129.5 26.376 128.02 26.376 126.203C26.376 124.38 27.7167 122.9 29.376 122.9C31.0353 122.9 32.376 124.38 32.376 126.203Z" fill="#63A4E5"/>
<path d="M167.376 76.1029C167.376 78.4213 165.632 80.2997 163.479 80.2997C161.326 80.2997 159.576 78.4213 159.576 76.1029C159.576 73.778 161.326 71.8997 163.479 71.8997C165.632 71.8997 167.376 73.778 167.376 76.1029Z" fill="#1DB1F0"/>
<path d="M153.576 80.5966C153.576 115.223 125.506 143.3 90.8789 143.3C56.2459 143.3 28.1758 115.223 28.1758 80.5966C28.1758 45.9698 56.2459 17.8997 90.8789 17.8997C125.506 17.8997 153.576 45.9698 153.576 80.5966Z" fill="#F8FAFA"/>
<g style="mix-blend-mode:multiply">
<path d="M144.374 136.508C144.897 138.989 143.249 141.445 140.68 142.013L63.8688 159.001C61.261 159.578 58.6992 157.992 58.1686 155.473L38.2069 60.6938C37.417 57.1806 39.7498 53.6686 43.4288 52.8586L116.304 36.742C119.977 35.9261 123.596 38.1192 124.392 41.6323L144.374 136.508Z" fill="#DAE9FA"/>
<path d="M38.9636 65.1469C38.441 62.6653 40.0885 60.21 42.6576 59.6418L119.469 42.6536C122.077 42.0768 124.638 43.6623 125.169 46.1813L145.131 140.961C145.921 144.474 143.588 147.986 139.909 148.796L67.0339 164.913C63.361 165.729 59.7416 163.536 58.9455 160.022L38.9636 65.1469Z" fill="#DAE9FA"/>
</g>
<path d="M147.034 131.929C147.557 134.41 145.909 136.866 143.34 137.434L66.529 154.422C63.9212 154.999 61.3593 153.413 60.8288 150.894L40.8671 56.1145C40.0772 52.6014 42.4099 49.0894 46.089 48.2794L118.964 32.1627C122.637 31.3469 126.256 33.54 127.052 37.0531L147.034 131.929Z" fill="white"/>
<path d="M41.6238 60.5677C41.1011 58.0861 42.7487 55.6308 45.3177 55.0626L122.129 38.0743C124.737 37.4976 127.299 39.0831 127.829 41.6021L147.791 136.382C148.581 139.895 146.248 143.407 142.569 144.217L69.694 160.334C66.0211 161.149 62.4017 158.956 61.6057 155.443L41.6238 60.5677Z" fill="white"/>
<rect x="89.05" y="61.1851" width="31.9854" height="3.91321" rx="1.9566" transform="rotate(-11.8 89.05 61.1851)" fill="#DFECFB"/>
<rect x="90.8679" y="69.8892" width="31.9854" height="3.91321" rx="1.9566" transform="rotate(-11.8 90.8679 69.8892)" fill="#DFECFB"/>
<rect x="92.6865" y="78.594" width="31.9854" height="3.91321" rx="1.9566" transform="rotate(-11.8 92.6865 78.594)" fill="#DFECFB"/>
<rect x="59.2749" y="94.658" width="67.9761" height="3.91321" rx="1.9566" transform="rotate(-11.8 59.2749 94.658)" fill="#DFECFB"/>
<rect x="61.0928" y="103.362" width="67.9761" height="3.91321" rx="1.9566" transform="rotate(-11.8 61.0928 103.362)" fill="#DFECFB"/>
<rect x="62.9121" y="112.066" width="67.9761" height="3.91321" rx="1.9566" transform="rotate(-11.8 62.9121 112.066)" fill="#DFECFB"/>
<rect x="64.7307" y="120.77" width="67.9761" height="21.6811" rx="7.8" transform="rotate(-11.8 64.7307 120.77)" fill="#DFECFB"/>
<rect x="70.1851" y="146.883" width="67.9761" height="3.91321" rx="1.9566" transform="rotate(-11.8 70.1851 146.883)" fill="#DFECFB"/>
<rect x="52.002" y="59.8411" width="31.3597" height="3.91321" rx="1.9566" transform="rotate(-11.8 52.002 59.8411)" fill="#4F46E5"/>
<rect x="53.8198" y="68.5452" width="31.3597" height="21.6974" rx="7.8" transform="rotate(-11.8 53.8198 68.5452)" fill="#DFECFB"/>
<circle cx="40.923" cy="129.556" r="22.2" transform="rotate(14.5438 40.923 129.556)" fill="#E94B3D"/>
<path d="M45.945 118.703C49.7588 118.703 52.3125 121.381 52.3125 125.363V134.555C52.3125 138.527 49.7588 141.203 45.945 141.203H36.1913C32.3775 141.203 29.8125 138.527 29.8125 134.555V125.363C29.8125 121.381 32.3775 118.703 36.1913 118.703H45.945ZM44.4488 126.545C44.0663 126.162 43.4475 126.162 43.0538 126.545L41.0625 128.547L39.06 126.545C38.6663 126.162 38.0475 126.162 37.665 126.545C37.2825 126.928 37.2825 127.558 37.665 127.939L39.6675 129.943L37.665 131.934C37.2825 132.328 37.2825 132.947 37.665 133.328C37.8563 133.519 38.115 133.622 38.3625 133.622C38.6213 133.622 38.8688 133.519 39.06 133.328L41.0625 131.338L43.065 133.328C43.2563 133.532 43.5038 133.622 43.7513 133.622C44.01 133.622 44.2575 133.519 44.4488 133.328C44.8313 132.947 44.8313 132.328 44.4488 131.945L42.4463 129.943L44.4488 127.939C44.8313 127.558 44.8313 126.928 44.4488 126.545Z" fill="white"/>
<path d="M14.294 90.847L25.2249 105.753C25.3004 105.853 25.2776 105.995 25.1827 106.067C25.0844 106.139 24.9448 106.118 24.8727 106.018L13.9385 91.1125C13.8664 91.0121 13.8858 90.8706 13.9841 90.7982C14.0823 90.7258 14.2219 90.7466 14.294 90.847Z" fill="#00002D"/>
<path d="M11.5584 87.6613L12.0487 88.2877C12.1191 88.3767 12.0941 88.4989 12.003 88.5634C11.9095 88.6318 11.7778 88.616 11.7114 88.5293L11.2172 87.9006C11.1508 87.8139 11.1717 87.6894 11.2661 87.6241C11.3604 87.5588 11.492 87.5746 11.5584 87.6613Z" fill="#00002D"/>
<path d="M21.1274 109.753C21.247 109.792 21.3095 109.917 21.2636 110.033C21.2178 110.149 21.0794 110.209 20.956 110.17L15.642 108.477C15.5186 108.439 15.4598 108.313 15.5057 108.197C15.5524 108.084 15.69 108.021 15.8133 108.059L21.1274 109.753Z" fill="#00002D"/>
<path d="M14.4185 107.577C14.5547 107.61 14.6162 107.734 14.5613 107.85C14.5056 107.964 14.3502 108.031 14.214 107.997L13.5734 107.832C13.4371 107.799 13.3715 107.676 13.4306 107.558C13.4854 107.442 13.6408 107.375 13.7779 107.412L14.4185 107.577Z" fill="#00002D"/>
<path d="M29.8821 102.709L30.0172 92.7491C30.0209 92.6274 30.1243 92.5286 30.2482 92.5272C30.3728 92.5292 30.4755 92.6245 30.4762 92.7488L30.3375 102.709C30.3382 102.834 30.2313 102.933 30.1074 102.935C29.9792 102.934 29.8793 102.834 29.8821 102.709Z" fill="#00002D"/>
<path d="M30.1001 91.1615L30.1548 90.7662C30.1672 90.6576 30.3151 90.5589 30.4747 90.5473C30.6336 90.5327 30.7549 90.6051 30.7385 90.7178L30.6838 91.113C30.666 91.2198 30.5228 91.3174 30.3639 91.3319C30.1997 91.3447 30.0823 91.2683 30.1001 91.1615Z" fill="#00002D"/>
<path d="M19.9209 54.4946C19.9209 56.3114 18.5802 57.7913 16.9209 57.7913C15.2616 57.7913 13.9209 56.3114 13.9209 54.4946C13.9209 52.6712 15.2616 51.1913 16.9209 51.1913C18.5802 51.1913 19.9209 52.6712 19.9209 54.4946Z" fill="#1DB1F0"/>
</g>
</svg>
