<svg width="56" height="56" viewBox="0 0 56 56" fill="none" xmlns="http://www.w3.org/2000/svg">
<g clip-path="url(#clip0_34_2523)">
<path d="M54.3053 14.2034C52.8364 8.79156 47.2079 3.16422 41.7961 1.69422C38.4776 0.86625 34.0326 0.0142187 27.9984 0C21.9642 0.0153125 17.5192 0.86625 14.2008 1.69422C8.78998 3.16422 3.16154 8.79156 1.69154 14.2034C0.864663 17.5208 0.0126318 21.9669 -0.00158691 28C0.0137256 34.0342 0.864663 38.4792 1.69263 41.7977C3.16263 47.2095 8.78998 52.8369 14.2019 54.3069C17.5203 55.1348 21.9653 55.9858 27.9995 56.0011C34.0326 55.9858 38.4787 55.1348 41.7972 54.3069C47.209 52.8369 52.8364 47.2095 54.3064 41.7977C55.1343 38.4803 55.9853 34.0342 56.0006 28C55.9853 21.9658 55.1343 17.5208 54.3064 14.2023L54.3053 14.2034Z" fill="#DDFEFD"/>
<path d="M19.6148 13.2464C17.0347 13.9486 14.7181 16.4697 14.2128 19.0728C13.8847 20.7146 13.4789 26.5278 13.5128 29.5564C13.48 32.585 13.8847 38.3983 14.2128 40.04C14.7356 42.7339 17.1965 45.3382 19.8828 45.9332C21.5136 46.2722 24.9687 46.6047 27.9973 46.6102C31.027 46.6047 34.4811 46.2722 36.1119 45.9332C38.7981 45.3382 41.259 42.7339 41.7819 40.04C42.11 38.3983 42.5158 32.585 42.4819 29.5564C42.5147 26.5278 42.11 20.7146 41.7819 19.0728C41.2765 16.4686 38.96 13.9486 36.3798 13.2464C36.2453 13.2082 36.1119 13.1797 36.1119 13.1797C34.4811 12.8407 31.0259 12.5082 27.9973 12.5027C24.9676 12.5082 21.5136 12.8407 19.8828 13.1797C19.8828 13.1797 19.7505 13.2071 19.6148 13.2464Z" fill="url(#paint0_linear_34_2523)"/>
<path d="M23.6836 26.5234V26.5158C23.7109 26.2609 23.8258 26.0214 24.0084 25.8409C24.1911 25.6605 24.4328 25.5456 24.6887 25.5194C24.878 25.4997 25.823 25.4855 26.4081 25.4756C26.418 24.8795 26.4322 23.9389 26.4508 23.7617C26.477 23.5069 26.593 23.2673 26.7745 23.0869C26.9572 22.9064 27.1989 22.7916 27.4548 22.7653H27.4625C27.7753 22.7325 28.0433 22.7467 28.0433 22.7467C28.0433 22.7467 28.2139 22.7325 28.5278 22.7642H28.5355C28.7925 22.7916 29.0342 22.9053 29.2158 23.0869C29.3984 23.2673 29.5133 23.508 29.5406 23.7617C29.5592 23.9389 29.5734 24.8806 29.5833 25.4778C30.1859 25.4876 31.1309 25.5019 31.3103 25.5205C31.5673 25.5467 31.809 25.6616 31.9906 25.842C32.1733 26.0225 32.2881 26.262 32.3155 26.5169V26.5245C32.3494 26.8351 32.334 27.1009 32.334 27.1009C32.334 27.1009 32.3483 27.2705 32.3155 27.5811V27.5887C32.2881 27.8436 32.1733 28.0831 31.9906 28.2636C31.808 28.4441 31.5662 28.5589 31.3103 28.5851C31.1309 28.6037 30.1859 28.618 29.5855 28.6278C29.5756 29.2086 29.5603 30.1492 29.5406 30.3362C29.5144 30.5911 29.3984 30.8306 29.2158 31.0111C29.0331 31.1916 28.7914 31.3064 28.5355 31.3326H28.5278C28.215 31.3655 28.0433 31.3611 28.0433 31.3611C28.0433 31.3611 27.7753 31.3655 27.4625 31.3326H27.4548C27.1978 31.3053 26.9561 31.1916 26.7745 31.01C26.5919 30.8295 26.477 30.5889 26.4508 30.3351C26.4311 30.1481 26.4169 29.2086 26.4059 28.6278C25.8208 28.618 24.8758 28.6037 24.6876 28.5841C24.4306 28.5578 24.1889 28.443 24.0073 28.2625C23.8247 28.082 23.7098 27.8425 23.6825 27.5876V27.58C23.6486 27.2694 23.653 27.0998 23.653 27.0998C23.653 27.0998 23.6486 26.8341 23.6814 26.5234H23.6836ZM31.9665 41.8567H24.0292C23.2669 41.8567 22.6478 41.2387 22.6478 40.4753C22.6478 39.7119 23.2658 39.0939 24.0292 39.0939H31.9665C32.7289 39.0939 33.348 39.7119 33.348 40.4753C33.348 41.2387 32.73 41.8567 31.9665 41.8567ZM35.3506 36.645H20.6451C19.8828 36.645 19.2637 36.027 19.2637 35.2636C19.2637 34.5001 19.8817 33.8822 20.6451 33.8822H35.3506C36.113 33.8822 36.732 34.5001 36.732 35.2636C36.732 36.027 36.114 36.645 35.3506 36.645Z" fill="url(#paint1_linear_34_2523)"/>
<path d="M22.7003 9.6458C21.7258 9.83502 20.7829 10.7253 20.5675 11.6977C20.445 12.2883 20.3247 13.0911 20.3225 14.1881C20.3247 15.2852 20.445 16.088 20.5675 16.6786C20.7829 17.651 21.7258 18.5424 22.7003 18.7305C23.2942 18.8497 26.9101 18.9963 28.0061 18.9842C29.102 18.9963 32.7179 18.8497 33.3119 18.7305C34.2864 18.5413 35.2292 17.651 35.4447 16.6786C35.5672 16.088 35.6875 15.2852 35.6897 14.1881C35.6875 13.0911 35.5672 12.2883 35.4447 11.6977C35.2292 10.7253 34.2864 9.83502 33.3119 9.6458C32.7179 9.52658 29.102 9.38002 28.0061 9.39205C26.9101 9.38002 23.2942 9.52658 22.7003 9.6458Z" fill="url(#paint2_linear_34_2523)"/>
</g>
<defs>
<linearGradient id="paint0_linear_34_2523" x1="40.9889" y1="42.5458" x2="15.008" y2="16.566" gradientUnits="userSpaceOnUse">
<stop stop-color="#1EB4EB"/>
<stop offset="0.54" stop-color="#1EB4EB"/>
<stop offset="1" stop-color="#92F4FE"/>
</linearGradient>
<linearGradient id="paint1_linear_34_2523" x1="34.1365" y1="40.2598" x2="21.8636" y2="27.9869" gradientUnits="userSpaceOnUse">
<stop stop-color="#BCE4ED"/>
<stop offset="0.57" stop-color="white"/>
<stop offset="1" stop-color="white"/>
</linearGradient>
<linearGradient id="paint2_linear_34_2523" x1="33.2397" y1="19.4217" x2="22.7714" y2="8.95346" gradientUnits="userSpaceOnUse">
<stop stop-color="#34344F"/>
<stop offset="0.26" stop-color="#3B3B56"/>
<stop offset="0.66" stop-color="#4F4F6C"/>
<stop offset="1" stop-color="#666684"/>
</linearGradient>
<clipPath id="clip0_34_2523">
<rect width="56" height="56" fill="white" transform="translate(-0.00158691)"/>
</clipPath>
</defs>
</svg>
