<svg width="48" height="48" viewBox="0 0 48 48" fill="none" xmlns="http://www.w3.org/2000/svg">
<g id="025-medical file" clip-path="url(#clip0_84_11229)">
<path id="Vector" d="M46.5487 12.1734C45.2897 7.53469 40.4653 2.71125 35.8266 1.45125C32.9822 0.7425 29.1722 0.0121875 24 0C18.8278 0.013125 15.0178 0.7425 12.1734 1.45219C7.53563 2.71125 2.71125 7.53469 1.45125 12.1734C0.7425 15.0178 0.0121875 18.8278 0 24C0.013125 29.1722 0.7425 32.9822 1.45219 35.8266C2.71219 40.4653 7.53562 45.2887 12.1744 46.5487C15.0188 47.2584 18.8288 47.9878 24.0009 48.0009C29.1722 47.9878 32.9831 47.2584 35.8275 46.5487C40.4663 45.2887 45.2897 40.4653 46.5497 35.8266C47.2594 32.9831 47.9888 29.1722 48.0019 24C47.9888 18.8278 47.2594 15.0178 46.5497 12.1734H46.5487Z" fill="#FFF1EB"/>
<g id="Group">
<path id="Vector_2" d="M35.5077 33.2907L35.504 33.271C35.3643 32.4807 34.7437 30.0254 34.2787 28.3585C33.8137 26.6917 32.8312 23.4029 32.5302 22.6126L32.5227 22.5929C32.2752 21.9451 31.8187 21.3348 31.2365 20.8745C30.6543 20.4142 29.9718 20.1235 29.3146 20.056C28.349 19.9567 19.6527 19.907 18.2015 19.907C18.2015 19.907 17.0906 19.9417 16.3715 19.1785C16.1456 18.9385 15.9496 18.6582 15.7687 18.4398C15.1959 17.7489 14.3634 17.2595 13.5271 17.1507C13.4999 17.147 13.4718 17.1442 13.4446 17.1414C12.479 17.042 12.9927 17.0767 11.5415 17.0767C10.0902 17.0767 10.8009 17.042 9.89055 17.1414C9.27087 17.2089 8.75055 17.4995 8.42524 17.9598C8.09993 18.4201 7.98368 19.0304 8.09805 19.6782L8.1018 19.6979C8.24149 20.4882 8.38774 21.2439 8.85274 22.9107C9.10024 23.7976 9.2943 24.4267 9.4668 24.9404C9.76868 26.1254 10.1259 27.4726 10.3734 28.3604C10.8384 30.0273 11.5874 32.4826 11.8893 33.2729L11.8968 33.2926C12.1443 33.9404 12.6009 34.5507 13.1831 35.011C13.7652 35.4714 14.4477 35.762 15.1049 35.8295C16.0706 35.9289 22.9649 35.9785 24.4162 35.9785C25.8674 35.9785 32.8049 35.9279 33.7152 35.8295C34.3349 35.762 34.8552 35.4714 35.1806 35.011C35.5059 34.5507 35.6221 33.9404 35.5077 33.2926V33.2907Z" fill="url(#paint0_linear_84_11229)"/>
<path id="Vector_3" d="M39.5511 16.9115C39.2173 16.3321 38.6904 15.9665 38.0698 15.8812C37.1576 15.7565 28.4886 15.6927 27.0373 15.6927C27.0373 15.6927 25.9076 15.7368 25.6001 14.7749C25.5036 14.473 25.4586 14.1196 25.3948 13.8449C25.1942 12.9749 24.6251 12.359 23.8479 12.2221C23.8226 12.2174 23.7964 12.2137 23.7711 12.2099C22.8589 12.0852 23.0604 12.0215 21.6083 12.0215C20.1561 12.0215 20.3314 12.0843 19.3667 12.2099C18.7104 12.2952 18.0336 12.6609 17.4608 13.2402C16.8879 13.8196 16.4426 14.5874 16.2083 15.403L16.2008 15.4284C16.1286 15.6787 15.7236 17.1262 15.4526 18.104C15.5642 18.209 15.6701 18.3215 15.7686 18.4387C15.9495 18.6571 16.1454 18.9374 16.3714 19.1774C17.0904 19.9405 18.2014 19.9059 18.2014 19.9059C19.6526 19.9059 28.3489 19.9565 29.3145 20.0549C29.9717 20.1224 30.6542 20.413 31.2364 20.8734C31.8186 21.3337 32.2751 21.944 32.5226 22.5918L32.5301 22.6115C32.832 23.4018 33.8136 26.6905 34.2786 28.3574C34.7436 30.0243 35.3651 32.4796 35.5039 33.2699L35.5076 33.2896C35.622 33.9374 35.5058 34.5477 35.1805 35.008C34.9723 35.3034 34.6826 35.5284 34.3395 35.6699C36.3917 34.9865 37.0001 32.939 37.0001 32.939C37.0498 32.8087 37.0939 32.6765 37.1323 32.5424L37.1398 32.5171C37.4258 31.5224 38.128 28.4305 38.5611 26.3324C38.9942 24.2343 39.7836 20.0934 39.9083 19.0987L39.9111 19.0734C40.0123 18.2577 39.8848 17.4899 39.5501 16.9105L39.5511 16.9115Z" fill="url(#paint1_linear_84_11229)"/>
<path id="Vector_4" d="M26.2067 29.6457C26.0464 29.8651 25.7923 30.0039 25.4914 30.0357C25.2823 30.0582 24.6129 30.0751 23.8911 30.0873C24.0683 30.7923 24.2314 31.4673 24.2679 31.6942C24.3186 32.0036 24.2576 32.2942 24.0973 32.5135C23.937 32.7329 23.6829 32.8717 23.382 32.9036H23.3726C23.0061 32.9439 22.7989 32.9382 22.7989 32.9382C22.7989 32.9382 22.4773 32.9439 22.0901 32.9045H22.0808C21.7629 32.8717 21.4348 32.7329 21.1564 32.5126C20.8779 32.2932 20.6614 32.0017 20.5461 31.6932C20.4617 31.4664 20.2629 30.7923 20.0623 30.0882C19.3545 30.0761 18.6767 30.0582 18.4433 30.0348C18.1254 30.0029 17.7973 29.8642 17.5189 29.6448C17.2404 29.4254 17.0239 29.1339 16.9086 28.8254L16.9048 28.816C16.7642 28.4392 16.7145 28.2329 16.7145 28.2329C16.7145 28.2329 16.6226 27.9104 16.5608 27.5326L16.5589 27.5232C16.5083 27.2139 16.5692 26.9232 16.7295 26.7039C16.8898 26.4845 17.1439 26.3457 17.4448 26.3129C17.6661 26.2895 18.3354 26.2717 19.0376 26.2595C18.8558 25.5348 18.6917 24.8607 18.657 24.6461C18.6064 24.3367 18.6673 24.046 18.8276 23.8267C18.9879 23.6073 19.242 23.4686 19.5429 23.4367H19.5523C19.9189 23.3964 20.2461 23.4142 20.2461 23.4142C20.2461 23.4142 20.4476 23.3964 20.8348 23.4357H20.8442C21.162 23.4685 21.4901 23.6073 21.7686 23.8276C22.047 24.047 22.2636 24.3385 22.3789 24.647C22.4595 24.8626 22.6573 25.5376 22.8636 26.2623C23.592 26.2745 24.2717 26.2914 24.4929 26.3139C24.8108 26.3457 25.1389 26.4845 25.4173 26.7048C25.6958 26.9242 25.9123 27.2157 26.0276 27.5242L26.0314 27.5336C26.172 27.9104 26.2404 28.2329 26.2404 28.2329C26.2404 28.2329 26.3126 28.4392 26.3745 28.816L26.3764 28.8254C26.427 29.1348 26.3661 29.4254 26.2058 29.6448L26.2067 29.6457Z" fill="url(#paint2_linear_84_11229)"/>
</g>
</g>
<defs>
<linearGradient id="paint0_linear_84_11229" x1="36.5212" y1="42.2542" x2="8.13837" y2="13.8704" gradientUnits="userSpaceOnUse">
<stop stop-color="#FE7838"/>
<stop offset="0.43" stop-color="#FE7636"/>
<stop offset="0.97" stop-color="#FFAD8A"/>
</linearGradient>
<linearGradient id="paint1_linear_84_11229" x1="40.2861" y1="30.3149" x2="16.3583" y2="6.38711" gradientUnits="userSpaceOnUse">
<stop stop-color="#FF6224"/>
<stop offset="0.54" stop-color="#FF6224"/>
<stop offset="1" stop-color="#FFAD8A"/>
</linearGradient>
<linearGradient id="paint2_linear_84_11229" x1="24.9617" y1="31.6661" x2="17.9679" y2="24.6732" gradientUnits="userSpaceOnUse">
<stop stop-color="#FFDDCE"/>
<stop offset="0.52" stop-color="white"/>
<stop offset="1" stop-color="white"/>
</linearGradient>
<clipPath id="clip0_84_11229">
<rect width="48" height="48" fill="white"/>
</clipPath>
</defs>
</svg>
