<svg width="160" height="160" viewBox="0 0 160 160" fill="none" xmlns="http://www.w3.org/2000/svg">
<g opacity="0.8">
<path d="M28.7782 111.666C28.7782 113.281 27.5864 114.596 26.1115 114.596C24.6365 114.596 23.4448 113.281 23.4448 111.666C23.4448 110.045 24.6365 108.73 26.1115 108.73C27.5864 108.73 28.7782 110.045 28.7782 111.666Z" fill="#63A4E5"/>
<path d="M148.778 67.1326C148.778 69.1934 147.228 70.863 145.314 70.863C143.401 70.863 141.845 69.1934 141.845 67.1326C141.845 65.066 143.401 63.3964 145.314 63.3964C147.228 63.3964 148.778 65.066 148.778 67.1326Z" fill="#FFD000"/>
<path d="M136.512 71.1269C136.512 101.906 111.56 126.863 80.781 126.863C49.9961 126.863 25.0449 101.906 25.0449 71.1269C25.0449 40.3476 49.9961 15.3964 80.781 15.3964C111.56 15.3964 136.512 40.3476 136.512 71.1269Z" fill="#ECF3FE"/>
<g style="mix-blend-mode:multiply" opacity="0.2">
<path d="M128.332 120.826C128.796 123.032 127.332 125.214 125.048 125.719L56.7718 140.82C54.4538 141.333 52.1765 139.923 51.705 137.684L33.9612 53.4355C33.2591 50.3127 35.3327 47.1909 38.6029 46.471L103.381 32.145C106.645 31.4198 109.863 33.3693 110.57 36.492L128.332 120.826Z" fill="#306C9E"/>
<path d="M34.6339 57.3939C34.1693 55.188 35.6337 53.0055 37.9173 52.5004L106.194 37.3998C108.512 36.8871 110.789 38.2965 111.261 40.5356L129.005 124.784C129.707 127.907 127.633 131.029 124.363 131.749L59.5852 146.075C56.3204 146.8 53.1031 144.85 52.3955 141.728L34.6339 57.3939Z" fill="#306C9E"/>
</g>
<path d="M130.697 116.755C131.161 118.961 129.697 121.144 127.413 121.649L59.1366 136.749C56.8185 137.262 54.5413 135.853 54.0697 133.614L36.326 49.3651C35.6239 46.2423 37.6974 43.1205 40.9676 42.4005L105.745 28.0746C109.01 27.3494 112.227 29.2988 112.935 32.4216L130.697 116.755Z" fill="white"/>
<path d="M36.9986 53.3235C36.534 51.1176 37.9985 48.9351 40.2821 48.43L108.559 33.3294C110.877 32.8167 113.154 34.226 113.626 36.4652L131.369 120.714C132.071 123.837 129.998 126.958 126.728 127.678L61.9499 142.004C58.6851 142.729 55.4679 140.78 54.7603 137.657L36.9986 53.3235Z" fill="white"/>
<rect x="79.1548" y="53.8723" width="28.4314" height="3.47841" rx="1.7392" transform="rotate(-11.8 79.1548 53.8723)" fill="#E4ECF9"/>
<rect x="80.771" y="61.6093" width="28.4314" height="3.47841" rx="1.7392" transform="rotate(-11.8 80.771 61.6093)" fill="#E4ECF9"/>
<rect x="82.3877" y="69.3469" width="28.4314" height="3.47841" rx="1.7392" transform="rotate(-11.8 82.3877 69.3469)" fill="#E4ECF9"/>
<rect x="52.6885" y="83.626" width="60.4232" height="3.47841" rx="1.7392" transform="rotate(-11.8 52.6885 83.626)" fill="#E4ECF9"/>
<rect x="54.3047" y="91.363" width="60.4232" height="3.47841" rx="1.7392" transform="rotate(-11.8 54.3047 91.363)" fill="#E4ECF9"/>
<rect x="55.9209" y="99.0995" width="60.4232" height="3.47841" rx="1.7392" transform="rotate(-11.8 55.9209 99.0995)" fill="#E4ECF9"/>
<rect x="57.5371" y="106.837" width="60.4232" height="19.2721" rx="6.93333" transform="rotate(-11.8 57.5371 106.837)" fill="#E4ECF9"/>
<rect x="62.3862" y="130.048" width="60.4232" height="3.47841" rx="1.7392" transform="rotate(-11.8 62.3862 130.048)" fill="#E4ECF9"/>
<rect x="46.2227" y="52.6776" width="27.8753" height="3.47841" rx="1.7392" transform="rotate(-11.8 46.2227 52.6776)" fill="#2982E1"/>
<rect x="47.8394" y="60.4146" width="27.8753" height="19.2866" rx="6.93333" transform="rotate(-11.8 47.8394 60.4146)" fill="#E4ECF9"/>
<path d="M17.7069 47.9253C17.7069 49.5403 16.5152 50.8557 15.0402 50.8557C13.5653 50.8557 12.3735 49.5403 12.3735 47.9253C12.3735 46.3045 13.5653 44.9891 15.0402 44.9891C16.5152 44.9891 17.7069 46.3045 17.7069 47.9253Z" fill="#FFD000"/>
<g clip-path="url(#clip0_72_2621)">
<path d="M54.9833 94.236C52.9056 89.9016 47.2881 86.0308 42.4979 85.631C39.5721 85.4478 35.6928 85.4189 30.6038 86.3429C25.5194 87.2917 21.9042 88.6985 19.2353 89.9112C14.902 91.9896 11.0301 97.6064 10.6303 102.397C10.4478 105.321 10.4191 109.202 11.3429 114.29C12.2917 119.374 13.6985 122.989 14.9112 125.658C16.9898 129.992 22.6064 133.863 27.3966 134.263C30.3224 134.446 34.2015 134.474 39.2907 133.551C44.3742 132.603 47.9902 131.196 50.6592 129.983C54.9934 127.904 58.8644 122.288 59.2642 117.498C59.4476 114.573 59.4754 110.693 58.5523 105.603C57.6035 100.519 56.1967 96.9039 54.9841 94.2349L54.9833 94.236Z" fill="#99F1FB"/>
<path d="M23.7722 108.292C23.0637 108.467 22.3584 108.654 21.6531 108.841C20.1089 109.266 18.9958 110.868 19.2194 112.368C19.7875 116.125 20.7311 120.404 21.8498 124.111C22.3041 125.59 23.988 126.847 25.5323 126.842C26.2106 126.834 26.8872 126.818 27.5631 126.792L30.7005 126.534L27.1951 107.483C27.1951 107.483 25.512 107.863 23.7731 108.292L23.7722 108.292Z" fill="url(#paint0_linear_72_2621)"/>
<path d="M44.7992 104.423C45.5236 104.334 46.2493 104.258 46.9749 104.182C48.5693 104.03 50.1799 105.131 50.5049 106.612C51.3109 110.325 51.9521 114.659 52.2262 118.522C52.3283 120.066 51.2019 121.84 49.757 122.385C49.1204 122.619 48.4822 122.844 47.8415 123.061L44.8179 123.937L41.3125 104.885C41.3125 104.885 43.0207 104.642 44.7983 104.423L44.7992 104.423Z" fill="url(#paint1_linear_72_2621)"/>
<path d="M40.8905 124.978C42.3035 124.648 43.7072 124.273 45.1014 123.851C45.552 123.715 45.8401 123.276 45.7876 122.809C44.9917 115.629 43.666 108.108 41.9801 101.152C41.5146 99.2745 39.6617 97.8148 37.909 97.9924C37.909 97.9924 35.7055 98.2224 32.8813 98.742C30.0572 99.2616 27.9172 99.8317 27.9172 99.8317C26.216 100.29 25.0032 102.313 25.2372 104.233C26.1365 111.333 27.5756 118.833 29.3876 125.827C29.5057 126.282 29.9311 126.589 30.4007 126.556C31.8829 126.452 33.3581 126.3 34.8235 126.099C34.8235 126.099 37.0216 125.778 37.8293 125.629C38.637 125.48 40.8915 124.979 40.8915 124.979L40.8905 124.978Z" fill="url(#paint2_linear_72_2621)"/>
<path d="M36.5473 95.5299C36.2275 94.6727 35.2745 94.0159 34.3587 94.0223C33.8047 94.0318 33.0563 94.0828 32.0566 94.2657C31.0573 94.4506 30.3407 94.6692 29.8187 94.8577C28.9614 95.1774 28.3037 96.1306 28.31 97.0455C28.3194 97.5995 28.3702 98.3471 28.5532 99.3467C28.738 100.346 28.9566 101.063 29.145 101.584C29.4647 102.441 30.4178 103.098 31.3336 103.091C31.8885 103.082 32.636 103.031 33.6357 102.848C34.635 102.663 35.3516 102.445 35.8736 102.256C36.7309 101.936 37.3886 100.983 37.3823 100.068C37.3728 99.5141 37.3221 98.7666 37.1391 97.767C36.9543 96.7677 36.7357 96.051 36.5473 95.5299Z" fill="url(#paint3_linear_72_2621)"/>
<path d="M35.5357 98.3947L35.5365 98.3993C35.5484 98.5572 35.5052 98.7158 35.4138 98.846C35.3233 98.9761 35.1887 99.0733 35.0358 99.1177C34.929 99.1488 34.3552 99.2629 33.9903 99.3367C34.0489 99.691 34.1459 100.265 34.1548 100.381C34.1667 100.539 34.1234 100.697 34.033 100.827C33.9425 100.957 33.8079 101.055 33.6549 101.099L33.6503 101.1C33.4632 101.155 33.3585 101.172 33.3585 101.172C33.3585 101.172 33.1958 101.204 33.0014 101.22L32.9968 101.221C32.8379 101.233 32.6777 101.191 32.5467 101.101C32.4158 101.011 32.3188 100.878 32.2739 100.727C32.241 100.616 32.1266 100.046 32.0561 99.6936C31.699 99.7526 31.1221 99.8501 31.0056 99.8592C30.8467 99.8713 30.6865 99.8293 30.5557 99.7399C30.4248 99.6505 30.3279 99.5177 30.2829 99.3659L30.282 99.3613C30.2269 99.176 30.2107 99.0722 30.2107 99.0722C30.2107 99.0722 30.1783 98.9114 30.1638 98.7186L30.1629 98.714C30.151 98.5561 30.1943 98.3975 30.2857 98.2673C30.377 98.137 30.5107 98.04 30.6637 97.9956C30.7767 97.9624 31.3495 97.8475 31.7053 97.7763C31.6449 97.4119 31.548 96.8387 31.5392 96.7288C31.5273 96.5708 31.5706 96.4122 31.661 96.2822C31.7515 96.1521 31.8861 96.0549 32.039 96.0105L32.0437 96.0097C32.2308 95.9543 32.3957 95.9335 32.3957 95.9335C32.3957 95.9335 32.4983 95.906 32.6918 95.8904L32.6965 95.8896C32.8553 95.8775 33.0156 95.9195 33.1466 96.0098C33.2774 96.0992 33.3745 96.2329 33.4194 96.3838C33.4503 96.4896 33.5649 97.0605 33.6372 97.4228C34.0043 97.361 34.5823 97.2641 34.6931 97.2552C34.8518 97.2422 35.0122 97.2851 35.143 97.3745C35.2739 97.4639 35.3708 97.5966 35.4158 97.7485L35.4167 97.7531C35.4718 97.9384 35.4931 98.1013 35.4931 98.1013C35.4931 98.1013 35.5214 98.2028 35.5359 98.3956L35.5357 98.3947Z" fill="url(#paint4_linear_72_2621)"/>
<path d="M34.6861 114.164C34.6894 114.581 34.3898 115.014 33.9992 115.161C33.7614 115.246 33.4357 115.346 32.9802 115.43C32.5247 115.514 32.1847 115.536 31.932 115.541C31.5151 115.544 31.0806 115.245 30.9353 114.854C30.8496 114.616 30.7496 114.291 30.6658 113.835C30.582 113.38 30.5595 113.04 30.555 112.787C30.5517 112.37 30.8513 111.936 31.2419 111.79C31.4797 111.705 31.8054 111.605 32.2609 111.521C32.7164 111.437 33.0573 111.414 33.3091 111.41C33.726 111.407 34.1605 111.706 34.3058 112.097C34.3914 112.335 34.4914 112.66 34.5752 113.116C34.659 113.571 34.6815 113.911 34.6861 114.164ZM33.502 107.728C33.5053 108.145 33.2057 108.579 32.8151 108.725C32.5773 108.811 32.2515 108.911 31.7961 108.994C31.3406 109.078 31.0006 109.101 30.7479 109.105C30.331 109.109 29.8965 108.809 29.7512 108.418C29.6655 108.181 29.5655 107.855 29.4817 107.399C29.3979 106.944 29.3754 106.604 29.3708 106.351C29.3675 105.934 29.6671 105.501 30.0578 105.355C30.2956 105.269 30.6213 105.169 31.0768 105.085C31.5322 105.001 31.8731 104.979 32.1249 104.974C32.5418 104.971 32.9763 105.27 33.1216 105.661C33.2073 105.899 33.3073 106.225 33.3911 106.68C33.4749 107.136 33.4974 107.476 33.502 107.728ZM40.5299 113.089C40.5332 113.506 40.2336 113.939 39.843 114.085C39.6052 114.171 39.2794 114.271 38.824 114.355C38.3685 114.439 38.0285 114.461 37.7758 114.466C37.3589 114.469 36.9244 114.17 36.7791 113.779C36.6934 113.541 36.5934 113.215 36.5096 112.76C36.4258 112.304 36.4033 111.964 36.3987 111.712C36.3954 111.295 36.6951 110.861 37.0857 110.715C37.3235 110.629 37.6492 110.529 38.1047 110.446C38.5601 110.362 38.9001 110.339 39.1528 110.335C39.5698 110.331 40.0042 110.631 40.1495 111.022C40.2352 111.259 40.3352 111.585 40.419 112.041C40.5028 112.496 40.5253 112.836 40.5299 113.089ZM39.3458 106.653C39.3491 107.07 39.0495 107.504 38.6588 107.65C38.421 107.735 38.0953 107.835 37.6398 107.919C37.1844 108.003 36.8444 108.026 36.5917 108.03C36.1748 108.033 35.7403 107.734 35.595 107.343C35.5093 107.105 35.4093 106.78 35.3255 106.324C35.2417 105.869 35.2192 105.529 35.2146 105.276C35.2113 104.859 35.5109 104.426 35.9015 104.279C36.1393 104.194 36.4651 104.094 36.9205 104.01C37.376 103.926 37.716 103.904 37.9687 103.899C38.3856 103.896 38.8201 104.195 38.9654 104.586C39.0511 104.824 39.1511 105.149 39.2349 105.605C39.3187 106.06 39.3412 106.4 39.3458 106.653Z" fill="url(#paint5_linear_72_2621)"/>
<path d="M39.1551 119.541C38.7398 119.252 38.2316 119.117 37.7236 119.159C37.7181 119.16 37.7133 119.16 37.7076 119.16C37.0881 119.212 36.7583 119.285 36.7583 119.285C36.7583 119.285 36.2352 119.369 35.6386 119.541C35.6331 119.542 35.6286 119.543 35.6233 119.545C35.1344 119.686 34.7067 119.993 34.4215 120.412C34.1362 120.83 34.007 121.34 34.0546 121.853C34.1084 122.43 34.5019 124.646 34.7778 126.105C34.7926 126.102 34.8077 126.101 34.8215 126.098C34.8215 126.098 37.0196 125.777 37.8273 125.628C38.5704 125.492 40.537 125.056 40.8464 124.987C40.5852 123.526 40.1639 121.314 40.0089 120.756C39.8718 120.26 39.5686 119.83 39.1531 119.54L39.1551 119.541Z" fill="url(#paint6_linear_72_2621)"/>
</g>
</g>
<defs>
<linearGradient id="paint0_linear_72_2621" x1="33.5082" y1="122.459" x2="18.4692" y2="112.094" gradientUnits="userSpaceOnUse">
<stop stop-color="#0C2F5A"/>
<stop offset="0.57" stop-color="#134E96"/>
<stop offset="1" stop-color="#1868CB"/>
</linearGradient>
<linearGradient id="paint1_linear_72_2621" x1="53.1297" y1="118.573" x2="38.723" y2="108.644" gradientUnits="userSpaceOnUse">
<stop stop-color="#062651"/>
<stop offset="0.57" stop-color="#0C366D"/>
<stop offset="1" stop-color="#1953A0"/>
</linearGradient>
<linearGradient id="paint2_linear_72_2621" x1="55.7106" y1="126.792" x2="18.6276" y2="101.234" gradientUnits="userSpaceOnUse">
<stop stop-color="#0C2F5A"/>
<stop offset="0.17" stop-color="#11417C"/>
<stop offset="1" stop-color="#2069C3"/>
</linearGradient>
<linearGradient id="paint3_linear_72_2621" x1="36.9528" y1="101.386" x2="28.7415" y2="95.7279" gradientUnits="userSpaceOnUse">
<stop stop-color="#EF3739"/>
<stop offset="0.54" stop-color="#EF3739"/>
<stop offset="1" stop-color="#FF8C8B"/>
</linearGradient>
<linearGradient id="paint4_linear_72_2621" x1="34.7231" y1="99.8482" x2="30.9743" y2="97.2645" gradientUnits="userSpaceOnUse">
<stop stop-color="#FFD2D2"/>
<stop offset="0.57" stop-color="white"/>
<stop offset="1" stop-color="white"/>
</linearGradient>
<linearGradient id="paint5_linear_72_2621" x1="40.4546" y1="113.513" x2="29.4452" y2="105.927" gradientUnits="userSpaceOnUse">
<stop stop-color="#B6F8FF"/>
<stop offset="0.57" stop-color="white"/>
<stop offset="1" stop-color="white"/>
</linearGradient>
<linearGradient id="paint6_linear_72_2621" x1="40.6097" y1="125.333" x2="34.1145" y2="120.857" gradientUnits="userSpaceOnUse">
<stop stop-color="#ABF7FF"/>
<stop offset="0.57" stop-color="white"/>
<stop offset="1" stop-color="white"/>
</linearGradient>
<clipPath id="clip0_72_2621">
<rect width="48" height="48" fill="white" transform="translate(7 90.6858) rotate(-10.4254)"/>
</clipPath>
</defs>
</svg>
