<svg width="56" height="56" viewBox="0 0 56 56" fill="none" xmlns="http://www.w3.org/2000/svg">
<g clip-path="url(#clip0_34_2511)">
<path d="M54.3069 14.2023C52.8369 8.79156 47.2095 3.16312 41.7977 1.69313C38.4792 0.86625 34.0342 0.0142187 28 0C21.9658 0.0142187 17.5208 0.86625 14.2023 1.69313C8.79156 3.16312 3.16312 8.79047 1.69313 14.2023C0.86625 17.5208 0.0142187 21.9658 0 28C0.0142187 34.0342 0.86625 38.4792 1.69313 41.7977C3.16312 47.2095 8.79156 52.8369 14.2023 54.3069C17.5208 55.1337 21.968 55.9858 28 56C34.0331 55.9858 38.4792 55.1337 41.7977 54.3069C47.2095 52.8369 52.8369 47.2095 54.3069 41.7977C55.1337 38.4792 55.9858 34.032 56 28C55.9858 21.9658 55.1337 17.5208 54.3069 14.2023Z" fill="#FFF1EB"/>
<path d="M28.5053 46.586C25.6156 46.6582 19.9369 46.2098 18.0808 45.7679C16.8153 45.501 15.6264 44.7649 14.7306 43.7401C13.8455 42.7415 13.2891 41.4947 13.137 40.169V40.1296C13.04 39.1737 13.01 38.2121 13.0473 37.252C13.0473 37.252 12.9762 36.4043 13.137 34.8665C13.137 34.8534 13.137 34.8413 13.137 34.8282C13.2715 33.566 13.8361 32.3885 14.7361 31.4934C15.6398 30.588 16.8248 30.0171 18.0961 29.8746C19.9555 29.6778 25.6233 29.5695 28.5031 29.5706C31.383 29.5717 36.0041 29.6799 37.8656 29.8746C39.1369 30.0171 40.3219 30.588 41.2256 31.4934C42.1253 32.3893 42.6902 33.5669 42.8258 34.8293V34.8687C42.9184 35.6594 42.9648 36.4548 42.9647 37.2509C42.9703 38.2133 42.9243 39.1754 42.8269 40.1329V40.1723C42.676 41.5001 42.12 42.7492 41.2344 43.7499C40.3375 44.7748 39.1486 45.5109 37.8831 45.7767C36.0259 46.1923 31.3906 46.6057 28.5053 46.586Z" fill="url(#paint0_linear_34_2511)"/>
<path d="M27.8119 27.4072C32.7827 27.4072 36.8123 23.3775 36.8123 18.4067C36.8123 13.4359 32.7827 9.40625 27.8119 9.40625C22.841 9.40625 18.8114 13.4359 18.8114 18.4067C18.8114 23.3775 22.841 27.4072 27.8119 27.4072Z" fill="url(#paint1_linear_34_2511)"/>
</g>
<defs>
<linearGradient id="paint0_linear_34_2511" x1="37.6753" y1="47.3243" x2="18.2908" y2="27.9398" gradientUnits="userSpaceOnUse">
<stop stop-color="#363651"/>
<stop offset="0.54" stop-color="#4A4A67"/>
<stop offset="1" stop-color="#646482"/>
</linearGradient>
<linearGradient id="paint1_linear_34_2511" x1="34.1758" y1="24.7706" x2="21.4469" y2="12.0417" gradientUnits="userSpaceOnUse">
<stop stop-color="#FF9F7D"/>
<stop offset="0.55" stop-color="#FF9F7D"/>
<stop offset="1" stop-color="#FFD4C7"/>
</linearGradient>
<clipPath id="clip0_34_2511">
<rect width="56" height="56" fill="white"/>
</clipPath>
</defs>
</svg>
