<svg width="56" height="56" viewBox="0 0 56 56" fill="none" xmlns="http://www.w3.org/2000/svg">
<g clip-path="url(#clip0_34_2537)">
<path d="M54.3037 14.2023C52.8337 8.79156 47.2064 3.16312 41.7945 1.69313C38.476 0.86625 34.031 0.0142187 27.9968 0C21.9626 0.0142187 17.5176 0.86625 14.1992 1.69313C8.78839 3.16312 3.15995 8.79047 1.68995 14.2023C0.863076 17.5208 0.0110449 21.9658 -0.00317383 28C0.0110449 34.0342 0.863076 38.4792 1.68995 41.7977C3.15995 47.2095 8.78839 52.8369 14.1992 54.3069C17.5176 55.1337 21.9648 55.9858 27.9968 56C34.03 55.9858 38.476 55.1337 41.7945 54.3069C47.2064 52.8369 52.8337 47.2095 54.3037 41.7977C55.1306 38.4792 55.9826 34.032 55.9968 28C55.9826 21.9658 55.1306 17.5208 54.3037 14.2023Z" fill="#FFF1EB"/>
<path d="M34.019 41.1075C31.5548 41.1687 26.7139 40.787 25.1312 40.4108C24.0184 40.1556 23.0172 39.5494 22.2754 38.6815C21.5211 37.8298 21.0469 36.7668 20.917 35.6365V35.6026C20.8345 34.7877 20.8089 33.9679 20.8404 33.1494C20.8404 33.1494 20.7803 32.4275 20.917 31.1161V31.0833C21.0324 30.0071 21.5139 29.0032 22.2809 28.2395C23.0516 27.468 24.0617 26.9817 25.1454 26.8603C26.7335 26.6919 31.5635 26.6011 34.0179 26.6011C36.4723 26.6011 40.4131 26.6919 42.0023 26.8603C43.0862 26.9818 44.0964 27.4686 44.8668 28.2406C45.634 29.0041 46.1156 30.0081 46.2307 31.0844V31.1172C46.3087 31.7914 46.3485 32.4695 46.35 33.1483C46.3534 33.9694 46.3136 34.7901 46.2307 35.607V35.6398C46.1011 36.7703 45.6272 37.8336 44.8734 38.6859C44.1309 39.553 43.1293 40.1584 42.0165 40.4129C40.4306 40.7717 36.4832 41.125 34.019 41.1075Z" fill="url(#paint0_linear_34_2537)"/>
<path d="M33.4284 24.757C37.6665 24.757 41.1021 21.3214 41.1021 17.0833C41.1021 12.8452 37.6665 9.40955 33.4284 9.40955C29.1903 9.40955 25.7546 12.8452 25.7546 17.0833C25.7546 21.3214 29.1903 24.757 33.4284 24.757Z" fill="url(#paint1_linear_34_2537)"/>
<path d="M22.8376 46.5839C20.3734 46.6452 15.5325 46.2623 13.9498 45.8861C12.8371 45.6307 11.8357 45.0249 11.0929 44.158C10.3377 43.3065 9.8624 42.2435 9.7312 41.113V41.0791C9.6487 40.2641 9.62311 39.4443 9.65464 38.6258C9.65464 38.6258 9.59339 37.9028 9.7312 36.5925V36.5586C9.84567 35.4822 10.3273 34.4779 11.0951 33.7148C11.866 32.9435 12.876 32.4568 13.9596 32.3345C15.5467 32.1672 20.3767 32.0753 22.831 32.0753C25.2854 32.0753 29.2262 32.1672 30.8154 32.3345C31.9009 32.4556 32.9128 32.9428 33.6843 33.7159C34.451 34.4799 34.9324 35.4836 35.0482 36.5597V36.5925C35.127 37.2667 35.1664 37.9448 35.1664 38.6236C35.1705 39.4443 35.131 40.2647 35.0482 41.0813V41.1141C34.9172 42.2457 34.441 43.3096 33.6843 44.1613C32.9422 45.029 31.9405 45.6349 30.8275 45.8894C29.2492 46.2481 25.3007 46.6003 22.8376 46.5839Z" fill="url(#paint2_linear_34_2537)"/>
<path d="M22.2459 30.2335C26.484 30.2335 29.9196 26.7978 29.9196 22.5597C29.9196 18.3216 26.484 14.886 22.2459 14.886C18.0078 14.886 14.5721 18.3216 14.5721 22.5597C14.5721 26.7978 18.0078 30.2335 22.2459 30.2335Z" fill="url(#paint3_linear_34_2537)"/>
</g>
<defs>
<linearGradient id="paint0_linear_34_2537" x1="41.8371" y1="41.7375" x2="25.3106" y2="25.2109" gradientUnits="userSpaceOnUse">
<stop stop-color="#383853"/>
<stop offset="0.52" stop-color="#4C4C68"/>
<stop offset="1" stop-color="#636381"/>
</linearGradient>
<linearGradient id="paint1_linear_34_2537" x1="38.8545" y1="22.5094" x2="28.0023" y2="11.6572" gradientUnits="userSpaceOnUse">
<stop stop-color="#E09868"/>
<stop offset="0.51" stop-color="#E09868"/>
<stop offset="1" stop-color="#F9C4A0"/>
</linearGradient>
<linearGradient id="paint2_linear_34_2537" x1="30.6546" y1="47.2128" x2="14.1281" y2="30.6863" gradientUnits="userSpaceOnUse">
<stop stop-color="#1FB5EC"/>
<stop offset="0.54" stop-color="#2CBCEE"/>
<stop offset="1" stop-color="#88EFFD"/>
</linearGradient>
<linearGradient id="paint3_linear_34_2537" x1="27.6717" y1="27.9856" x2="16.8191" y2="17.133" gradientUnits="userSpaceOnUse">
<stop stop-color="#FF9F7D"/>
<stop offset="0.55" stop-color="#FF9F7D"/>
<stop offset="1" stop-color="#FFD4C7"/>
</linearGradient>
<clipPath id="clip0_34_2537">
<rect width="56" height="56" fill="white" transform="translate(-0.00317383)"/>
</clipPath>
</defs>
</svg>
