<svg width="57" height="56" viewBox="0 0 57 56" fill="none" xmlns="http://www.w3.org/2000/svg">
<g clip-path="url(#clip0_34_2545)">
<path d="M54.8053 14.2034C53.3364 8.79156 47.7079 3.16422 42.2961 1.69422C38.9776 0.86625 34.5326 0.0142187 28.4984 0C22.4642 0.0153125 18.0192 0.86625 14.7008 1.69422C9.28998 3.16422 3.66154 8.79156 2.19154 14.2034C1.36466 17.5208 0.512632 21.9669 0.498413 28C0.513726 34.0342 1.36466 38.4792 2.19263 41.7977C3.66263 47.2095 9.28998 52.8369 14.7019 54.3069C18.0203 55.1348 22.4653 55.9858 28.4995 56.0011C34.5326 55.9858 38.9787 55.1348 42.2972 54.3069C47.709 52.8369 53.3364 47.2095 54.8064 41.7977C55.6343 38.4803 56.4853 34.0342 56.5006 28C56.4853 21.9658 55.6343 17.5208 54.8064 14.2023L54.8053 14.2034Z" fill="#DFF8FF"/>
<path d="M29.0037 46.5807C26.114 46.6529 20.4386 46.2033 18.5825 45.7626C17.3181 45.4957 16.1292 44.7596 15.2334 43.7358C14.3376 42.7099 13.7722 41.4444 13.6409 40.1658C13.6398 40.1527 13.6387 40.1396 13.6365 40.1265C13.4768 38.5646 13.5468 37.2499 13.5468 37.2499C13.5468 37.2499 13.4758 36.4022 13.6365 34.8655C13.6376 34.8524 13.6387 34.8393 13.6409 34.8261C13.7722 33.5661 14.3398 32.3926 15.24 31.4924C16.1401 30.5944 17.3334 30.0104 18.5989 29.8747C20.4604 29.6779 26.1239 29.5707 29.0015 29.5707C31.8803 29.5707 36.5003 29.6779 38.3608 29.8747C39.6273 30.0104 40.8206 30.5944 41.7197 31.4935C42.6198 32.3947 43.1875 33.5683 43.3187 34.8283C43.3198 34.8415 43.3209 34.8535 43.3231 34.8666C43.4839 36.4044 43.462 37.2466 43.462 37.2477C43.462 37.2477 43.4839 38.5668 43.3231 40.1297C43.322 40.1429 43.3209 40.156 43.3187 40.1691C43.1875 41.4499 42.622 42.7143 41.7262 43.7402C40.8304 44.764 39.6415 45.5001 38.3772 45.7658C36.5211 46.1858 31.8912 46.6004 29.0026 46.5807H29.0037Z" fill="url(#paint0_linear_34_2545)"/>
<path d="M28.4984 27.4083C33.468 27.4083 37.4967 23.3796 37.4967 18.41C37.4967 13.4404 33.468 9.41174 28.4984 9.41174C23.5288 9.41174 19.5001 13.4404 19.5001 18.41C19.5001 23.3796 23.5288 27.4083 28.4984 27.4083Z" fill="url(#paint1_linear_34_2545)"/>
<path d="M20.6026 29.7435V33.3343C18.4961 33.9358 16.9495 35.8761 16.9495 38.173V39.3827C16.9495 40.145 17.5675 40.7619 18.3287 40.7619C19.09 40.7619 19.7079 40.1439 19.7079 39.3827V38.173C19.7079 36.9196 20.7273 35.8991 21.9818 35.8991C23.2364 35.8991 24.2557 36.9185 24.2557 38.173V39.3827C24.2557 40.145 24.8737 40.7619 25.635 40.7619C26.3962 40.7619 27.0142 40.1439 27.0142 39.3827V38.173C27.0142 35.8761 25.4676 33.9358 23.3611 33.3343V29.6494C23.3611 29.6494 21.8834 29.6855 20.6015 29.7435H20.6026Z" fill="url(#paint2_linear_34_2545)"/>
<path d="M36.4084 29.7368V35.7886C37.1839 36.2567 37.7023 37.1065 37.7023 38.0778C37.7023 39.5533 36.5057 40.7498 35.0303 40.7498C33.5548 40.7498 32.3582 39.5533 32.3582 38.0778C32.3582 37.1076 32.8756 36.2578 33.65 35.7897V29.6351C33.65 29.6351 34.9778 29.6668 36.4095 29.7368H36.4084Z" fill="url(#paint3_linear_34_2545)"/>
</g>
<defs>
<linearGradient id="paint0_linear_34_2545" x1="38.1704" y1="47.3179" x2="18.7925" y2="27.9399" gradientUnits="userSpaceOnUse">
<stop stop-color="#1EB4EB"/>
<stop offset="0.54" stop-color="#1EB4EB"/>
<stop offset="1" stop-color="#92F4FE"/>
</linearGradient>
<linearGradient id="paint1_linear_34_2545" x1="34.8607" y1="24.7724" x2="22.135" y2="12.0466" gradientUnits="userSpaceOnUse">
<stop stop-color="#FF9F7D"/>
<stop offset="0.55" stop-color="#FF9F7D"/>
<stop offset="1" stop-color="#FFD4C7"/>
</linearGradient>
<linearGradient id="paint2_linear_34_2545" x1="26.1621" y1="40.8068" x2="17.8507" y2="32.4964" gradientUnits="userSpaceOnUse">
<stop stop-color="#34344F"/>
<stop offset="0.26" stop-color="#3B3B56"/>
<stop offset="0.66" stop-color="#4F4F6C"/>
<stop offset="1" stop-color="#666684"/>
</linearGradient>
<linearGradient id="paint3_linear_34_2545" x1="38.4045" y1="38.4836" x2="31.6036" y2="31.6815" gradientUnits="userSpaceOnUse">
<stop stop-color="#34344F"/>
<stop offset="0.26" stop-color="#3B3B56"/>
<stop offset="0.66" stop-color="#4F4F6C"/>
<stop offset="1" stop-color="#666684"/>
</linearGradient>
<clipPath id="clip0_34_2545">
<rect width="56" height="56" fill="white" transform="translate(0.498413)"/>
</clipPath>
</defs>
</svg>
